<svg xmlns="http://www.w3.org/2000/svg">
    <symbol id="user" width="30" height="30" viewBox="0 0 24 24" fill="none">
        <circle opacity="0.5" cx="12" cy="9" r="3" stroke="#1C274C" stroke-width="1.5"/>
        <circle cx="12" cy="12" r="10" stroke="#1C274C" stroke-width="1.5"/>
        <path opacity="0.5" d="M17.9691 20C17.81 17.1085 16.9247 15 11.9999 15C7.07521 15 6.18991 17.1085 6.03076 20" stroke="#1C274C" stroke-width="1.5" stroke-linecap="round"/>
    </symbol>
    <symbol id="host" fill="var(--ci-primary-color, currentColor)" viewBox="0 0 36 36" preserveAspectRatio="xMidYMid meet">
        <path d="M21.08,34h-14A1.08,1.08,0,0,1,6,33V12a1.08,1.08,0,0,1,1.08-1.08h14A1.08,1.08,0,0,1,22.16,12V33A1.08,1.08,0,0,1,21.08,34ZM8.16,31.88H20V13H8.16Z" class="clr-i-outline clr-i-outline-path-1"></path><rect x="10.08" y="14.96" width="8" height="2" class="clr-i-outline clr-i-outline-path-2"></rect><path d="M26.1,27.81h-2V9h-12V7h13a1,1,0,0,1,1,1Z" class="clr-i-outline clr-i-outline-path-3"></path><path d="M30.08,23h-2V5h-11V3h12a1,1,0,0,1,1,1Z" class="clr-i-outline clr-i-outline-path-4"></path><rect x="13.08" y="27.88" width="2" height="2.16" class="clr-i-outline clr-i-outline-path-5"></rect>
        <rect x="0" y="0" width="36" height="36" fill-opacity="0"/>
    </symbol>
    <symbol id="home" viewBox="0 0 24 24">
        <path fill-rule="evenodd" clip-rule="evenodd" d="M12 3.1875L21.4501 10.275L21.0001 11.625H20.25V20.25H3.75005V11.625H3.00005L2.55005 10.275L12 3.1875ZM5.25005 10.125V18.75H18.75V10.125L12 5.0625L5.25005 10.125Z" fill="var(--ci-primary-color, currentColor)"/>
    </symbol>
    <symbol id="cluster" viewBox="0 0 16 16">
        <path fill="var(--ci-primary-color, currentColor)" d="M14 12c-0.372 0.011-0.716 0.121-1.008 0.305l-2.212-2.155c0.434-0.547 0.708-1.239 0.74-1.993l1.57-0.157c0.225 0.556 0.76 0.941 1.385 0.941 0.823 0 1.49-0.667 1.49-1.49s-0.667-1.49-1.49-1.49c-0.749 0-1.368 0.552-1.474 1.271l-1.591 0.128c-0.224-1.136-0.973-2.060-1.978-2.521l0.308-0.839h0.26c1.099-0.008 1.986-0.9 1.986-2 0-1.105-0.895-2-2-2s-2 0.895-2 2c0 0.742 0.404 1.39 1.004 1.735l-0.27 0.855c-0.227-0.054-0.487-0.084-0.754-0.084-0.83 0-1.59 0.296-2.181 0.789l-2.994-3.004c0.141-0.224 0.225-0.497 0.225-0.79 0-0.828-0.672-1.5-1.5-1.5s-1.5 0.672-1.5 1.5c0 0.823 0.663 1.492 1.484 1.5 0.281-0.001 0.544-0.079 0.767-0.214l2.993 3.004c-0.474 0.588-0.76 1.344-0.76 2.168 0 0.015 0 0.030 0 0.045-0 0.058-0 0.108-0 0.158l-0.66 0.11c-0.313-0.72-1.019-1.214-1.839-1.214-1.105 0-2 0.895-2 2s0.895 2 2 2c1.105 0 2-0.895 2-2 0-0.020-0-0.039-0.001-0.059l0.63-0.097c0.242 0.843 0.768 1.538 1.466 1.992l-0.556 1.188c-0.161-0.049-0.347-0.078-0.539-0.080-0.006-0-0.012-0-0.017-0-1.105 0-2 0.895-2 2s0.895 2 2 2c1.105 0 2-0.895 2-2 0-0.64-0.301-1.211-0.769-1.577l0.566-1.153c0.364 0.146 0.787 0.231 1.229 0.231 0.847 0 1.621-0.311 2.216-0.824l2.176 2.124c-0.25 0.33-0.4 0.748-0.4 1.2 0 1.105 0.895 2 2 2s2-0.895 2-2c0-1.105-0.895-2-2-2 0 0 0 0 0 0zM5 15c-0.552 0-1-0.448-1-1s0.448-1 1-1c0.552 0 1 0.448 1 1s-0.448 1-1 1zM8 10.5c-1.381 0-2.5-1.119-2.5-2.5s1.119-2.5 2.5-2.5c1.381 0 2.5 1.119 2.5 2.5s-1.119 2.5-2.5 2.5z"></path>
    </symbol>
</svg>