<svg xmlns="http://www.w3.org/2000/svg">
    <symbol viewBox="0 0 24 24" fill="none" id="warn">
        <g id="SVGRepo_bgCarrier" stroke-width="0"></g><g id="SVGRepo_tracerCarrier" stroke-linecap="round" stroke-linejoin="round"></g><g id="SVGRepo_iconCarrier"><path d="M15.9375 6.11972C17.7862 7.39969 19 9.55585 19 12C19 15.9274 15.866 19.1111 12 19.1111C11.6411 19.1111 11.2885 19.0837 10.9441 19.0307M13.0149 4.96309C12.6836 4.9142 12.3447 4.88889 12 4.88889C8.13401 4.88889 5 8.07264 5 12C5 14.4071 6.17734 16.5349 7.97895 17.8215M13.0149 4.96309L12.4375 4M13.0149 4.96309L12.4375 5.77778M10.9441 19.0307L11.7866 18.2222M10.9441 19.0307L11.5625 20M12 9V12.5M12 14.5V15" stroke="#FFFF00" stroke-linecap="round" stroke-linejoin="round"></path></g>
    </symbol>
    <symbol viewBox="0 0 24 24" fill="none" id="ok">
        <g id="SVGRepo_bgCarrier" stroke-width="0"></g><g id="SVGRepo_tracerCarrier" stroke-linecap="round" stroke-linejoin="round"></g><g id="SVGRepo_iconCarrier"><path d="M16.5 5.38468C18.6128 6.82466 20 9.25033 20 12C20 16.4183 16.4183 20 12 20C11.5898 20 11.1868 19.9691 10.7932 19.9096M13.1599 4.08348C12.7812 4.02847 12.3939 4 12 4C7.58172 4 4 7.58172 4 12C4 14.708 5.34553 17.1018 7.40451 18.5492M13.1599 4.08348L12.5 3M13.1599 4.08348L12.5 5M10.7932 19.9096L11.7561 19M10.7932 19.9096L11.5 21M9 12L11 14L15 10" stroke="#00FF00" stroke-linecap="round" stroke-linejoin="round"></path></g>
    </symbol>
    <symbol id="restore" viewBox="0 0 24 24">
        <path d="M4.52185 7H7C7.55229 7 8 7.44772 8 8C8 8.55229 7.55228 9 7 9H3C1.89543 9 1 8.10457 1 7V3C1 2.44772 1.44772 2 2 2C2.55228 2 3 2.44772 3 3V5.6754C4.26953 3.8688 6.06062 2.47676 8.14852 1.69631C10.6633 0.756291 13.435 0.768419 15.9415 1.73041C18.448 2.69239 20.5161 4.53782 21.7562 6.91897C22.9963 9.30013 23.3228 12.0526 22.6741 14.6578C22.0254 17.263 20.4464 19.541 18.2345 21.0626C16.0226 22.5842 13.3306 23.2444 10.6657 22.9188C8.00083 22.5931 5.54702 21.3041 3.76664 19.2946C2.20818 17.5356 1.25993 15.3309 1.04625 13.0078C0.995657 12.4579 1.45216 12.0088 2.00445 12.0084C2.55673 12.0079 3.00351 12.4566 3.06526 13.0055C3.27138 14.8374 4.03712 16.5706 5.27027 17.9625C6.7255 19.605 8.73118 20.6586 10.9094 20.9247C13.0876 21.1909 15.288 20.6513 17.0959 19.4075C18.9039 18.1638 20.1945 16.3018 20.7247 14.1724C21.2549 12.043 20.9881 9.79319 19.9745 7.8469C18.9608 5.90061 17.2704 4.3922 15.2217 3.6059C13.173 2.8196 10.9074 2.80968 8.8519 3.57803C7.11008 4.22911 5.62099 5.40094 4.57993 6.92229C4.56156 6.94914 4.54217 6.97505 4.52185 7Z" fill="#321fdb"/>
    </symbol>
    <symbol id="description" viewBox="0 0 24 24">
        <circle cx="12" cy="12" r="10" stroke="#1C274C" stroke-width="1.5"/>
        <path d="M10.125 8.875C10.125 7.83947 10.9645 7 12 7C13.0355 7 13.875 7.83947 13.875 8.875C13.875 9.56245 13.505 10.1635 12.9534 10.4899C12.478 10.7711 12 11.1977 12 11.75V13" stroke="#1C274C" stroke-width="1.5" stroke-linecap="round"/>
        <circle cx="12" cy="16" r="1" fill="#1C274C"/>
    </symbol>
</svg>

