<svg version="1.1" xmlns="http://www.w3.org/2000/svg" xmlns:xlink="http://www.w3.org/1999/xlink">
  <symbol viewBox="0 0 1024 1024" id="ok">
    <path d="M512 512m-448 0a448 448 0 1 0 896 0 448 448 0 1 0-896 0Z" fill="#4CAF50" /><path d="M738.133333 311.466667L448 601.6l-119.466667-119.466667-59.733333 59.733334 179.2 179.2 349.866667-349.866667z" fill="#CCFF90" />
  </symbol>
  <symbol fill="#ff0000" viewBox="0 0 36 36" preserveAspectRatio="xMidYMid meet" id="failed">
    <g id="SVGRepo_bgCarrier" stroke-width="0"></g><g id="SVGRepo_tracerCarrier" stroke-linecap="round" stroke-linejoin="round" stroke="#CCCCCC" stroke-width="4.824"></g><g id="SVGRepo_iconCarrier"> <title>error-standard-solid</title> <path class="clr-i-solid clr-i-solid-path-1" d="M18,2.1a16,16,0,1,0,16,16A16,16,0,0,0,18,2.1ZM16.6,8.8a1.4,1.4,0,0,1,2.8,0v12a1.4,1.4,0,0,1-2.8,0ZM18,28.6a1.8,1.8,0,1,1,1.8-1.8A1.8,1.8,0,0,1,18,28.6Z"></path> <rect x="0" y="0" width="36" height="36" fill-opacity="0"></rect> </g>
  </symbol>
</svg>