<svg xmlns="http://www.w3.org/2000/svg">
    <symbol viewBox="0 0 24 24" fill="none" id="warn">
        <g id="SVGRepo_bgCarrier" stroke-width="0"></g><g id="SVGRepo_tracerCarrier" stroke-linecap="round" stroke-linejoin="round"></g><g id="SVGRepo_iconCarrier"><path d="M15.9375 6.11972C17.7862 7.39969 19 9.55585 19 12C19 15.9274 15.866 19.1111 12 19.1111C11.6411 19.1111 11.2885 19.0837 10.9441 19.0307M13.0149 4.96309C12.6836 4.9142 12.3447 4.88889 12 4.88889C8.13401 4.88889 5 8.07264 5 12C5 14.4071 6.17734 16.5349 7.97895 17.8215M13.0149 4.96309L12.4375 4M13.0149 4.96309L12.4375 5.77778M10.9441 19.0307L11.7866 18.2222M10.9441 19.0307L11.5625 20M12 9V12.5M12 14.5V15" stroke="#FFFF00" stroke-linecap="round" stroke-linejoin="round"></path></g>
    </symbol>
    <symbol viewBox="0 0 24 24" fill="none" id="ok">
        <g id="SVGRepo_bgCarrier" stroke-width="0"></g><g id="SVGRepo_tracerCarrier" stroke-linecap="round" stroke-linejoin="round"></g><g id="SVGRepo_iconCarrier"><path d="M16.5 5.38468C18.6128 6.82466 20 9.25033 20 12C20 16.4183 16.4183 20 12 20C11.5898 20 11.1868 19.9691 10.7932 19.9096M13.1599 4.08348C12.7812 4.02847 12.3939 4 12 4C7.58172 4 4 7.58172 4 12C4 14.708 5.34553 17.1018 7.40451 18.5492M13.1599 4.08348L12.5 3M13.1599 4.08348L12.5 5M10.7932 19.9096L11.7561 19M10.7932 19.9096L11.5 21M9 12L11 14L15 10" stroke="#00FF00" stroke-linecap="round" stroke-linejoin="round"></path></g>
    </symbol>
</svg>


