<svg xmlns="http://www.w3.org/2000/svg">
  <symbol viewBox="0 0 24 24" fill="none" id="start-time">
    <g id="SVGRepo_bgCarrier" stroke-width="0"></g><g id="SVGRepo_tracerCarrier" stroke-linecap="round" stroke-linejoin="round"></g><g id="SVGRepo_iconCarrier"> <path d="M12 8V13" stroke="#000000" stroke-width="1.5" stroke-linecap="round" stroke-linejoin="round"></path> <path d="M12 22C7.17 22 3.25 18.08 3.25 13.25C3.25 8.42 7.17 4.5 12 4.5C16.83 4.5 20.75 8.42 20.75 13.25" stroke="#000000" stroke-width="1.5" stroke-linecap="round" stroke-linejoin="round"></path> <path d="M9 2H15" stroke="#000000" stroke-width="1.5" stroke-miterlimit="10" stroke-linecap="round" stroke-linejoin="round"></path> <path d="M14.9 18.5V17.34C14.9 15.91 15.92 15.32 17.16 16.04L18.16 16.62L19.16 17.2C20.4 17.92 20.4 19.09 19.16 19.81L18.16 20.39L17.16 20.97C15.92 21.69 14.9 21.1 14.9 19.67V18.5Z" stroke="#000000" stroke-width="1.5" stroke-miterlimit="10" stroke-linecap="round" stroke-linejoin="round"></path> </g>
  </symbol>
  <symbol viewBox="0 0 48 48" fill="#000000" id="duration">
    <g id="SVGRepo_bgCarrier" stroke-width="0"></g><g id="SVGRepo_tracerCarrier" stroke-linecap="round" stroke-linejoin="round"></g><g id="SVGRepo_iconCarrier"> <title>time-stopwatch</title> <g id="Layer_2" data-name="Layer 2"> <g id="invisible_box" data-name="invisible box"> <rect width="48" height="48" fill="none"></rect> </g> <g id="Q3_icons" data-name="Q3 icons"> <g> <path d="M38.8,15.1l2.4-2.5a1.9,1.9,0,0,0,0-2.8,1.8,1.8,0,0,0-1.4-.6,2,2,0,0,0-1.4.6l-2.5,2.4A19.1,19.1,0,0,0,26,8.1V6h2a2,2,0,0,0,0-4H20a2,2,0,0,0,0,4h2V8.1a19,19,0,1,0,16.8,7ZM24,42A15,15,0,1,1,39,27,15,15,0,0,1,24,42Z"></path> <path d="M33,25H26V18a2,2,0,0,0-4,0V29H33a2,2,0,0,0,0-4Z"></path> </g> </g> </g> </g>
  </symbol>
  <symbol viewBox="0 0 1024 1024" id="success">
    <path d="M512 512m-448 0a448 448 0 1 0 896 0 448 448 0 1 0-896 0Z" fill="#4CAF50" /><path d="M738.133333 311.466667L448 601.6l-119.466667-119.466667-59.733333 59.733334 179.2 179.2 349.866667-349.866667z" fill="#CCFF90" />
  </symbol>
  <symbol fill="#ff0000" viewBox="0 0 36 36" preserveAspectRatio="xMidYMid meet" id="failed">
    <g id="SVGRepo_bgCarrier" stroke-width="0"></g><g id="SVGRepo_tracerCarrier" stroke-linecap="round" stroke-linejoin="round" stroke="#CCCCCC" stroke-width="4.824"></g><g id="SVGRepo_iconCarrier"> <title>error-standard-solid</title> <path class="clr-i-solid clr-i-solid-path-1" d="M18,2.1a16,16,0,1,0,16,16A16,16,0,0,0,18,2.1ZM16.6,8.8a1.4,1.4,0,0,1,2.8,0v12a1.4,1.4,0,0,1-2.8,0ZM18,28.6a1.8,1.8,0,1,1,1.8-1.8A1.8,1.8,0,0,1,18,28.6Z"></path> <rect x="0" y="0" width="36" height="36" fill-opacity="0"></rect> </g>
  </symbol>
  <symbol viewBox="0 0 16 16" id="default" fill="#000000">
    <g id="SVGRepo_bgCarrier" stroke-width="0"></g><g id="SVGRepo_tracerCarrier" stroke-linecap="round" stroke-linejoin="round"></g><g id="SVGRepo_iconCarrier"> <path id="Path_14" data-name="Path 14" d="M-13.5,3.5V8a.5.5,0,0,1-.5.5.5.5,0,0,1-.5-.5V3.5A.5.5,0,0,1-14,3,.5.5,0,0,1-13.5,3.5ZM-13,.55a.5.5,0,0,0-.465-.532Q-13.731,0-14,0a8.009,8.009,0,0,0-8,8,8.009,8.009,0,0,0,8,8q.268,0,.534-.018A.5.5,0,0,0-13,15.45a.507.507,0,0,0-.533-.466c-.154.011-.309.016-.466.016a7.008,7.008,0,0,1-7-7,7.008,7.008,0,0,1,7-7c.157,0,.312,0,.466.016h.034A.5.5,0,0,0-13,.55Zm2.126,13.716a7.165,7.165,0,0,1-.842.354.5.5,0,0,0-.31.635.5.5,0,0,0,.473.337.516.516,0,0,0,.163-.027,8.087,8.087,0,0,0,.962-.4.5.5,0,0,0,.224-.671A.5.5,0,0,0-10.875,14.266ZM-8.738,3.383a.5.5,0,0,0,.376.171.5.5,0,0,0,.33-.124.5.5,0,0,0,.046-.706,7.93,7.93,0,0,0-.739-.739.5.5,0,0,0-.7.047.5.5,0,0,0,.046.7A6.91,6.91,0,0,1-8.738,3.383Zm-3.005-2.011a6.892,6.892,0,0,1,.845.351.5.5,0,0,0,.221.051.5.5,0,0,0,.448-.278.5.5,0,0,0-.227-.67,8.041,8.041,0,0,0-.964-.4.5.5,0,0,0-.635.312A.5.5,0,0,0-11.743,1.372ZM-6.73,9.919a.5.5,0,0,0-.633.314,7.106,7.106,0,0,1-.348.845.5.5,0,0,0,.229.67.5.5,0,0,0,.219.05.5.5,0,0,0,.45-.279,8.145,8.145,0,0,0,.4-.967A.5.5,0,0,0-6.73,9.919ZM-8.721,12.6a7.043,7.043,0,0,1-.644.649.5.5,0,0,0-.042.706.5.5,0,0,0,.374.168.493.493,0,0,0,.331-.126,7.9,7.9,0,0,0,.735-.74.5.5,0,0,0-.048-.706A.5.5,0,0,0-8.721,12.6Zm2.7-5.135A.5.5,0,0,0-6.551,7a.5.5,0,0,0-.465.532C-7.005,7.685-7,7.842-7,8s0,.3-.014.442a.5.5,0,0,0,.466.532h.033a.5.5,0,0,0,.5-.467C-6.005,8.34-6,8.17-6,8S-6.006,7.639-6.018,7.462Zm-1.354-1.72a.5.5,0,0,0,.474.339.508.508,0,0,0,.161-.027.5.5,0,0,0,.312-.635,8.056,8.056,0,0,0-.4-.964.5.5,0,0,0-.67-.226.5.5,0,0,0-.226.669A6.939,6.939,0,0,1-7.372,5.742Z" transform="translate(22)"></path> </g>
  </symbol>
  <symbol viewBox="0 0 64 64" aria-hidden="true" role="img" class="iconify iconify--emojione" preserveAspectRatio="xMidYMid meet" fill="#000000" id="upstream_failed">
    <g id="SVGRepo_bgCarrier" stroke-width="0"></g><g id="SVGRepo_tracerCarrier" stroke-linecap="round" stroke-linejoin="round"></g><g id="SVGRepo_iconCarrier"> <path d="M5.9 62c-3.3 0-4.8-2.4-3.3-5.3L29.3 4.2c1.5-2.9 3.9-2.9 5.4 0l26.7 52.5c1.5 2.9 0 5.3-3.3 5.3H5.9z" fill="#ffce31"> </path> <g fill="#ffffff"> <path d="M27.8 23.6l2.8 18.5c.3 1.8 2.6 1.8 2.9 0l2.7-18.5c.5-7.2-8.9-7.2-8.4 0"> </path> <circle cx="32" cy="49.6" r="4.2"> </circle> </g> </g>
  </symbol>
  <symbol viewBox="0 0 16 16" id="skipped" fill="none">
    <g id="SVGRepo_bgCarrier" stroke-width="0"></g><g id="SVGRepo_tracerCarrier" stroke-linecap="round" stroke-linejoin="round"></g><g id="SVGRepo_iconCarrier"><path fill="#000000" fill-rule="evenodd" d="M8 0a8 8 0 100 16A8 8 0 008 0zM1.5 8a6.5 6.5 0 0110.535-5.096l-9.131 9.131A6.472 6.472 0 011.5 8zm2.465 5.096a6.5 6.5 0 009.131-9.131l-9.131 9.131z" clip-rule="evenodd"></path></g>
  </symbol>
  <symbol viewBox="0 0 24 24" id="no_status" fill="#000000">
    <g id="SVGRepo_bgCarrier" stroke-width="0"></g><g id="SVGRepo_tracerCarrier" stroke-linecap="round" stroke-linejoin="round"></g><g id="SVGRepo_iconCarrier"> <path fill="none" stroke="#000000" stroke-width="2" d="M2,3.99079514 C2,2.89130934 2.89821238,2 3.99079514,2 L20.0092049,2 C21.1086907,2 22,2.89821238 22,3.99079514 L22,20.0092049 C22,21.1086907 21.1017876,22 20.0092049,22 L3.99079514,22 C2.89130934,22 2,21.1017876 2,20.0092049 L2,3.99079514 Z M12,15 L12,14 C12,13 12,12.5 13,12 C14,11.5 15,11 15,9.5 C15,8.5 14,7 12,7 C10,7 9,8.26413718 9,10 M12,16 L12,18"></path> </g>
  </symbol>
</svg>