<svg xmlns="http://www.w3.org/2000/svg" version="1.1" xmlns:xlink="http://www.w3.org/1999/xlink" xmlns:svgjs="http://svgjs.dev/svgjs">
    <symbol id="full" width="150" height="50" viewBox="0 0 1500 359">
        <g transform="matrix(1,0,0,1,-0.9090909090909918,-0.41748181509521487)">
        <svg viewBox="0 0 396 95" data-background-color="#1a365d" preserveAspectRatio="xMidYMid meet" height="359" width="1500" xmlns="http://www.w3.org/2000/svg" xmlns:xlink="http://www.w3.org/1999/xlink">
        <g id="tight-bounds" transform="matrix(1,0,0,1,0.2400000000000091,0.1104756892313219)">
        <svg viewBox="0 0 395.52 94.77904862153736" height="94.77904862153736" width="395.52">
        <g>
        <svg viewBox="0 0 535.3836647012541 128.29478759075906" height="94.77904862153736" width="395.52">
        <g transform="matrix(1,0,0,1,139.86366470125412,39.6449515511551)"><svg viewBox="0 0 395.52 49.004884488448845" height="49.004884488448845" width="395.52">
        <g id="textblocktransform"><svg viewBox="0 0 395.52 49.004884488448845" height="49.004884488448845" width="395.52" id="textblock">
        <g>
        <svg viewBox="0 0 395.52 49.004884488448845" height="49.004884488448845" width="395.52">
        <g transform="matrix(1,0,0,1,0,0)"><svg width="395.52" viewBox="0.1 -34.45 363.56 45.050000000000004" height="49.004884488448845" data-palette-color="#cdedfe"><path d="M18.2-34.45L22.85-34.45 13.75-13.25 13.75 0 9.2 0 9.2-13.2 0.1-34.45 4.95-34.45 11.6-17.25 18.2-34.45ZM46.9 0L42.25 0 40.2-8.75 29.9-8.75 27.85 0 23.35 0 32.3-34.45 37.95-34.45 46.9 0ZM35.05-30.65L30.75-12.4 39.35-12.4 35.05-30.65ZM71.5 0L66.5 0 59.8-14.75Q59.45-14.7 58.75-14.7L58.75-14.7 55.65-14.7 55.65 0 51.09 0 51.09-34.45 58-34.45Q64.05-34.45 67-31.95 69.95-29.45 69.95-24.75L69.95-24.75Q69.95-21.45 68.4-19.07 66.84-16.7 63.95-15.6L63.95-15.6 71.5 0ZM58.34-18.2Q61.95-18.2 63.55-19.78 65.15-21.35 65.15-24.75L65.15-24.75Q65.15-27.9 63.5-29.38 61.84-30.85 57.95-30.85L57.95-30.85 55.65-30.85 55.65-18.2 58.34-18.2ZM76.19-34.45L80.74-34.45 80.74 0 76.19 0 76.19-34.45ZM88.34-34.45L92.89-34.45 92.89 0 88.34 0 88.34-34.45ZM103.64-34.45L108.49-34.45 97.99-18.7 109.24 0 104.09 0 93.09-18.4 103.64-34.45ZM147.79-34.45L150.09 0 145.79 0 144.89-15.65Q144.24-25.35 144.34-29.8L144.34-29.8 138.49-3.9 134.24-3.9 128.09-29.85 128.14-27.55Q128.14-23.65 127.74-15.35L127.74-15.35 126.89 0 122.59 0 124.94-34.45 130.84-34.45 136.44-9.2 141.74-34.45 147.79-34.45ZM171.68-5.6Q171.68-4.2 172.08-3.53 172.48-2.85 173.38-2.45L173.38-2.45 172.43 0.6Q170.58 0.3 169.51-0.58 168.43-1.45 167.98-3.2L167.98-3.2Q165.83 0.6 161.68 0.6L161.68 0.6Q158.43 0.6 156.51-1.58 154.58-3.75 154.58-7.35L154.58-7.35Q154.58-11.55 157.18-13.78 159.78-16 164.73-16L164.73-16 167.33-16 167.33-18.4Q167.33-21 166.31-22.2 165.28-23.4 163.13-23.4L163.13-23.4Q160.58-23.4 157.18-22.05L157.18-22.05 156.08-25.15Q160.13-26.9 163.68-26.9L163.68-26.9Q167.73-26.9 169.71-24.73 171.68-22.55 171.68-18.6L171.68-18.6 171.68-5.6ZM162.58-2.7Q165.68-2.7 167.33-6.9L167.33-6.9 167.33-13.05 165.23-13.05Q162.08-13.05 160.61-11.7 159.13-10.35 159.13-7.55L159.13-7.55Q159.13-5.15 160.03-3.93 160.93-2.7 162.58-2.7L162.58-2.7ZM189.78-26.9Q192.63-26.9 194.33-24.85 196.03-22.8 196.03-19.35L196.03-19.35 196.03 0 191.63 0 191.63-18.75Q191.63-21.3 190.91-22.38 190.18-23.45 188.73-23.45L188.73-23.45Q185.88-23.45 183.43-18.55L183.43-18.55 183.43 0 179.03 0 179.03-26.35 182.83-26.35 183.18-22.4Q184.48-24.6 186.03-25.75 187.58-26.9 189.78-26.9L189.78-26.9ZM218.33-5.6Q218.33-4.2 218.73-3.53 219.13-2.85 220.03-2.45L220.03-2.45 219.08 0.6Q217.23 0.3 216.15-0.58 215.08-1.45 214.63-3.2L214.63-3.2Q212.48 0.6 208.33 0.6L208.33 0.6Q205.08 0.6 203.15-1.58 201.23-3.75 201.23-7.35L201.23-7.35Q201.23-11.55 203.83-13.78 206.43-16 211.38-16L211.38-16 213.98-16 213.98-18.4Q213.98-21 212.95-22.2 211.93-23.4 209.78-23.4L209.78-23.4Q207.23-23.4 203.83-22.05L203.83-22.05 202.73-25.15Q206.78-26.9 210.33-26.9L210.33-26.9Q214.38-26.9 216.35-24.73 218.33-22.55 218.33-18.6L218.33-18.6 218.33-5.6ZM209.23-2.7Q212.33-2.7 213.98-6.9L213.98-6.9 213.98-13.05 211.88-13.05Q208.73-13.05 207.25-11.7 205.78-10.35 205.78-7.55L205.78-7.55Q205.78-5.15 206.68-3.93 207.58-2.7 209.23-2.7L209.23-2.7ZM242.33-29.15L243.63-25.2Q242.48-24.7 241.05-24.55 239.63-24.4 237.43-24.4L237.43-24.4Q241.28-22.3 241.28-17.7L241.28-17.7Q241.28-13.65 239.03-11.23 236.78-8.8 232.83-8.8L232.83-8.8Q231.38-8.8 230.18-9.3L230.18-9.3Q229.68-8.9 229.4-8.22 229.13-7.55 229.13-6.8L229.13-6.8Q229.13-5.7 229.73-5.08 230.33-4.45 231.88-4.45L231.88-4.45 234.78-4.45Q237.23-4.45 239.08-3.5 240.93-2.55 241.9-0.93 242.88 0.7 242.88 2.65L242.88 2.65Q242.88 6.25 240.2 8.43 237.53 10.6 232.48 10.6L232.48 10.6Q227.28 10.6 225.1 8.58 222.93 6.55 222.93 2.65L222.93 2.65 226.83 2.65Q226.83 5.1 228.03 6.13 229.23 7.15 232.53 7.15L232.53 7.15Q235.73 7.15 237.13 6.08 238.53 5 238.53 2.95L238.53 2.95Q238.53-0.95 233.93-0.95L233.93-0.95 232.08-0.95Q228.48-0.95 226.83-2.27 225.18-3.6 225.18-5.85L225.18-5.85Q225.18-8.25 227.78-10.35L227.78-10.35Q223.93-12.7 223.93-17.75L223.93-17.75Q223.93-21.9 226.38-24.4 228.83-26.9 232.73-26.9L232.73-26.9Q236.23-26.9 238.23-27.45 240.23-28 242.33-29.15L242.33-29.15ZM232.68-23.75Q230.48-23.75 229.38-22.3 228.28-20.85 228.28-17.75L228.28-17.75Q228.28-15.05 229.43-13.4 230.58-11.75 232.63-11.75L232.63-11.75Q234.83-11.75 235.88-13.15 236.93-14.55 236.93-17.8L236.93-17.8Q236.93-23.75 232.68-23.75L232.68-23.75ZM264.42-13.95Q264.42-12.85 264.32-11.65L264.32-11.65 250.52-11.65Q250.72-6.9 252.1-4.95 253.47-3 256.02-3L256.02-3Q257.67-3 258.97-3.53 260.27-4.05 261.67-5.2L261.67-5.2 263.62-2.55Q260.32 0.6 255.87 0.6L255.87 0.6Q251.17 0.6 248.57-2.88 245.97-6.35 245.97-12.9L245.97-12.9Q245.97-19.45 248.45-23.18 250.92-26.9 255.42-26.9L255.42-26.9Q259.77-26.9 262.1-23.63 264.42-20.35 264.42-13.95L264.42-13.95ZM260.17-14.9L260.17-15.25Q260.17-19.55 259.02-21.5 257.87-23.45 255.42-23.45L255.42-23.45Q253.22-23.45 251.97-21.48 250.72-19.5 250.52-14.9L250.52-14.9 260.17-14.9ZM292.27-26.9Q294.92-26.9 296.52-24.83 298.12-22.75 298.12-19.35L298.12-19.35 298.12 0 293.82 0 293.82-18.8Q293.82-21.3 293.15-22.4 292.47-23.5 291.17-23.5L291.17-23.5Q288.52-23.5 286.27-18.8L286.27-18.8 286.27 0 281.97 0 281.97-18.8Q281.97-23.5 279.32-23.5L279.32-23.5Q277.92-23.5 276.65-22.25 275.37-21 274.37-18.8L274.37-18.8 274.37 0 270.07 0 270.07-26.35 273.87-26.35 274.17-22.55Q276.67-26.9 280.42-26.9L280.42-26.9Q282.42-26.9 283.8-25.68 285.17-24.45 285.77-22.2L285.77-22.2Q288.47-26.9 292.27-26.9L292.27-26.9ZM322.27-13.95Q322.27-12.85 322.17-11.65L322.17-11.65 308.37-11.65Q308.57-6.9 309.94-4.95 311.32-3 313.87-3L313.87-3Q315.52-3 316.82-3.53 318.12-4.05 319.52-5.2L319.52-5.2 321.47-2.55Q318.17 0.6 313.72 0.6L313.72 0.6Q309.02 0.6 306.42-2.88 303.82-6.35 303.82-12.9L303.82-12.9Q303.82-19.45 306.29-23.18 308.77-26.9 313.27-26.9L313.27-26.9Q317.62-26.9 319.94-23.63 322.27-20.35 322.27-13.95L322.27-13.95ZM318.02-14.9L318.02-15.25Q318.02-19.55 316.87-21.5 315.72-23.45 313.27-23.45L313.27-23.45Q311.07-23.45 309.82-21.48 308.57-19.5 308.37-14.9L308.37-14.9 318.02-14.9ZM338.67-26.9Q341.52-26.9 343.22-24.85 344.92-22.8 344.92-19.35L344.92-19.35 344.92 0 340.52 0 340.52-18.75Q340.52-21.3 339.79-22.38 339.07-23.45 337.62-23.45L337.62-23.45Q334.77-23.45 332.32-18.55L332.32-18.55 332.32 0 327.92 0 327.92-26.35 331.72-26.35 332.07-22.4Q333.37-24.6 334.92-25.75 336.47-26.9 338.67-26.9L338.67-26.9ZM361.96-3.95L363.66-1.2Q361.41 0.6 358.61 0.6L358.61 0.6Q355.66 0.6 354.04-1.15 352.41-2.9 352.41-5.85L352.41-5.85 352.41-22.9 348.86-22.9 348.86-26.35 352.41-26.35 352.41-32.3 356.81-32.85 356.81-26.35 361.91-26.35 361.46-22.9 356.81-22.9 356.81-5.8Q356.81-3.05 359.16-3.05L359.16-3.05Q359.96-3.05 360.56-3.25 361.16-3.45 361.96-3.95L361.96-3.95Z" opacity="1" transform="matrix(1,0,0,1,0,0)" fill="#cdedfe" class="wordmark-text-0" data-fill-palette-color="primary" id="text-0"></path></svg></g></svg></g></svg></g></svg></g><g><svg viewBox="0 0 128.29478759075909 128.29478759075906" height="128.29478759075906" width="128.29478759075909"><g><svg xmlns="http://www.w3.org/2000/svg" xmlns:xlink="http://www.w3.org/1999/xlink" version="1.1" x="0" y="0" viewBox="4.2 4.099999999999998 91.70000000000002 91.7" enable-background="new 0 0 100 100" xml:space="preserve" height="128.29478759075906" width="128.29478759075909" class="icon-icon-0" data-fill-palette-color="accent" id="icon-0"><path d="M42.6 91.8l0.1-5.7c-5.1-1-9.8-3.1-13.8-6l-4.1 4c-1.5 1.5-4 1.5-5.5-0.1l-4.2-4.3c-1.5-1.5-1.5-4 0.1-5.5l4.1-4c-2.7-4.2-4.7-8.9-5.5-14L8 56.3c-2.1 0-3.8-1.8-3.8-3.9l0.1-6c0-2.1 1.8-3.8 3.9-3.8l5.4 0.1c3.8 2.4 8.3 3.5 12.9 3.2 1.2-0.1 2.3 0.3 3 1.1l0.7 0.7c-0.1 0.7-0.1 1.4-0.1 2.1-0.1 11 8.7 20.1 19.7 20.2 0.9 0 1.8 0 2.6-0.1l0.2 0.2c0.8 0.8 1.2 2 1.1 3.3-0.5 4.7 0.5 9.2 2.8 13.2L56.3 92c0 2.1-1.8 3.8-3.9 3.8l-6-0.1C44.3 95.7 42.5 94 42.6 91.8zM84.9 20.2l-4.2-4.3c-1.5-1.5-3.9-1.6-5.5-0.1L71 19.9c-4-2.8-8.7-4.9-13.7-5.9l0.1-5.9c0-2.1-1.7-3.9-3.8-3.9l-6-0.1c-2.1 0-3.9 1.7-3.9 3.8l-0.1 5.6c2.3 3.9 3.3 8.5 2.8 13.2-0.1 1.3 0.3 2.4 1.1 3.3l0.2 0.2c0.9-0.1 1.7-0.1 2.6-0.1 11 0.1 19.8 9.2 19.7 20.2 0 0.7-0.1 1.4-0.1 2.1l0.7 0.7c0.8 0.8 1.9 1.2 3 1.1 4.6-0.3 9.1 0.8 12.9 3.2l5.4 0.1c2.1 0 3.9-1.7 3.9-3.8l0.1-6c0-2.1-1.7-3.9-3.8-3.9l-5.8-0.1c-0.9-5.1-2.8-9.8-5.6-13.9l4.2-4.1C86.4 24.2 86.4 21.7 84.9 20.2zM76.2 73.2c2-2 5.2-2 7.1 0l4.3 4.3c1.3 1.3 3.6 0.4 3.6-1.5 0.1-4.3-1.5-8.6-4.7-11.8-3.4-3.4-8-5-12.5-4.7-2.7 0.2-5.3-0.7-7.1-2.6L54.4 44.4l0 0L43.7 33.8c-2-2-2.9-4.8-2.6-7.6 0.5-4.7-1-9.6-4.6-13.2C32.9 9.3 28 7.8 23.3 8.3c-1.8 0.2-2.5 2.4-1.2 3.6l4.8 4.8c2 2 1.9 5.1 0 7.1l-3 3c-2 2-5.2 2-7.1 0l-4.3-4.3c-1.3-1.3-3.6-0.4-3.6 1.5-0.1 4.3 1.5 8.6 4.7 11.8 3.4 3.4 8 5 12.5 4.7 2.7-0.2 5.3 0.7 7.1 2.6l12.4 12.4 0 0 10.6 10.6c2 2 2.9 4.8 2.6 7.6-0.5 4.7 1 9.6 4.6 13.2 3.6 3.6 8.5 5.1 13.2 4.6 1.8-0.2 2.5-2.4 1.2-3.6l-4.8-4.8c-2-2-1.9-5.1 0-7.1L76.2 73.2z" fill="#ff851b" data-fill-palette-color="accent"></path></svg></g></svg></g></svg></g><defs></defs></svg><rect width="395.52" height="94.77904862153736" fill="none" stroke="none" visibility="hidden"></rect></g></svg>
        </g>
    </symbol>
    <symbol id="emblem" viewBox="0 0 95.48099999999998 95.48099999999998" height="50" width="50" data-background-color="#1a365d" preserveAspectRatio="xMidYMid meet">
        <g>
            <svg viewBox="0 0 95.48099999999998 95.48099999999998" height="95.48099999999998" width="95.48099999999998">
                <g>
                    <svg viewBox="0 0 95.48099999999998 95.48099999999998" height="95.48099999999998" width="95.48099999999998">
                        <g id="textblocktransform">
                            <svg viewBox="0 0 95.48099999999998 95.48099999999998" height="95.48099999999998" width="95.48099999999998" id="textblock">
                                <g>
                                    <svg viewBox="0 0 95.48099999999998 95.48099999999998" height="95.48099999999998" width="95.48099999999998">
                                        <g>
                                            <svg viewBox="0 0 95.48099999999998 95.48099999999998" height="95.48099999999998" width="95.48099999999998">
                                                <g>
                                                    <svg xmlns="http://www.w3.org/2000/svg" xmlns:xlink="http://www.w3.org/1999/xlink" version="1.1" x="0" y="0" viewBox="4.199999809265137 4.100000381469727 91.70000457763672 91.70000457763672" enable-background="new 0 0 100 100" xml:space="preserve" height="95.48099999999998" width="95.48099999999998" class="icon-icon-0" data-fill-palette-color="accent" id="icon-0">
                                                        <path d="M42.6 91.8l0.1-5.7c-5.1-1-9.8-3.1-13.8-6l-4.1 4c-1.5 1.5-4 1.5-5.5-0.1l-4.2-4.3c-1.5-1.5-1.5-4 0.1-5.5l4.1-4c-2.7-4.2-4.7-8.9-5.5-14L8 56.3c-2.1 0-3.8-1.8-3.8-3.9l0.1-6c0-2.1 1.8-3.8 3.9-3.8l5.4 0.1c3.8 2.4 8.3 3.5 12.9 3.2 1.2-0.1 2.3 0.3 3 1.1l0.7 0.7c-0.1 0.7-0.1 1.4-0.1 2.1-0.1 11 8.7 20.1 19.7 20.2 0.9 0 1.8 0 2.6-0.1l0.2 0.2c0.8 0.8 1.2 2 1.1 3.3-0.5 4.7 0.5 9.2 2.8 13.2L56.3 92c0 2.1-1.8 3.8-3.9 3.8l-6-0.1C44.3 95.7 42.5 94 42.6 91.8zM84.9 20.2l-4.2-4.3c-1.5-1.5-3.9-1.6-5.5-0.1L71 19.9c-4-2.8-8.7-4.9-13.7-5.9l0.1-5.9c0-2.1-1.7-3.9-3.8-3.9l-6-0.1c-2.1 0-3.9 1.7-3.9 3.8l-0.1 5.6c2.3 3.9 3.3 8.5 2.8 13.2-0.1 1.3 0.3 2.4 1.1 3.3l0.2 0.2c0.9-0.1 1.7-0.1 2.6-0.1 11 0.1 19.8 9.2 19.7 20.2 0 0.7-0.1 1.4-0.1 2.1l0.7 0.7c0.8 0.8 1.9 1.2 3 1.1 4.6-0.3 9.1 0.8 12.9 3.2l5.4 0.1c2.1 0 3.9-1.7 3.9-3.8l0.1-6c0-2.1-1.7-3.9-3.8-3.9l-5.8-0.1c-0.9-5.1-2.8-9.8-5.6-13.9l4.2-4.1C86.4 24.2 86.4 21.7 84.9 20.2zM76.2 73.2c2-2 5.2-2 7.1 0l4.3 4.3c1.3 1.3 3.6 0.4 3.6-1.5 0.1-4.3-1.5-8.6-4.7-11.8-3.4-3.4-8-5-12.5-4.7-2.7 0.2-5.3-0.7-7.1-2.6L54.4 44.4l0 0L43.7 33.8c-2-2-2.9-4.8-2.6-7.6 0.5-4.7-1-9.6-4.6-13.2C32.9 9.3 28 7.8 23.3 8.3c-1.8 0.2-2.5 2.4-1.2 3.6l4.8 4.8c2 2 1.9 5.1 0 7.1l-3 3c-2 2-5.2 2-7.1 0l-4.3-4.3c-1.3-1.3-3.6-0.4-3.6 1.5-0.1 4.3 1.5 8.6 4.7 11.8 3.4 3.4 8 5 12.5 4.7 2.7-0.2 5.3 0.7 7.1 2.6l12.4 12.4 0 0 10.6 10.6c2 2 2.9 4.8 2.6 7.6-0.5 4.7 1 9.6 4.6 13.2 3.6 3.6 8.5 5.1 13.2 4.6 1.8-0.2 2.5-2.4 1.2-3.6l-4.8-4.8c-2-2-1.9-5.1 0-7.1L76.2 73.2z" fill="#ff851b" data-fill-palette-color="accent"/>
                                                    </svg>
                                                </g>
                                            </svg>
                                        </g>
                                    </svg>
                                </g>
                            </svg>
                        </g>
                    </svg>
                </g>
            </svg>
        </g> 
    </symbol>
    <symbol id="black-full" width="150" height="50" viewBox="0 0 2000 479">
        <g transform="matrix(1,0,0,1,-1.2121212121212466,-0.5570300541242545)"><svg viewBox="0 0 396 95" data-background-color="#1a365d" preserveAspectRatio="xMidYMid meet" height="479" width="2000" xmlns="http://www.w3.org/2000/svg" xmlns:xlink="http://www.w3.org/1999/xlink"><g id="tight-bounds" transform="matrix(1,0,0,1,0.2400000000000091,0.1104756892313219)"><svg viewBox="0 0 395.52 94.77904862153736" height="94.77904862153736" width="395.52"><g><svg viewBox="0 0 535.3836647012541 128.29478759075906" height="94.77904862153736" width="395.52"><g transform="matrix(1,0,0,1,139.86366470125412,39.6449515511551)"><svg viewBox="0 0 395.52 49.004884488448845" height="49.004884488448845" width="395.52"><g id="textblocktransform"><svg viewBox="0 0 395.52 49.004884488448845" height="49.004884488448845" width="395.52" id="textblock"><g><svg viewBox="0 0 395.52 49.004884488448845" height="49.004884488448845" width="395.52"><g transform="matrix(1,0,0,1,0,0)"><svg width="395.52" viewBox="0.1 -34.45 363.56 45.050000000000004" height="49.004884488448845" data-palette-color="#cdedfe"><path d="M18.2-34.45L22.85-34.45 13.75-13.25 13.75 0 9.2 0 9.2-13.2 0.1-34.45 4.95-34.45 11.6-17.25 18.2-34.45ZM46.9 0L42.25 0 40.2-8.75 29.9-8.75 27.85 0 23.35 0 32.3-34.45 37.95-34.45 46.9 0ZM35.05-30.65L30.75-12.4 39.35-12.4 35.05-30.65ZM71.5 0L66.5 0 59.8-14.75Q59.45-14.7 58.75-14.7L58.75-14.7 55.65-14.7 55.65 0 51.09 0 51.09-34.45 58-34.45Q64.05-34.45 67-31.95 69.95-29.45 69.95-24.75L69.95-24.75Q69.95-21.45 68.4-19.07 66.84-16.7 63.95-15.6L63.95-15.6 71.5 0ZM58.34-18.2Q61.95-18.2 63.55-19.78 65.15-21.35 65.15-24.75L65.15-24.75Q65.15-27.9 63.5-29.38 61.84-30.85 57.95-30.85L57.95-30.85 55.65-30.85 55.65-18.2 58.34-18.2ZM76.19-34.45L80.74-34.45 80.74 0 76.19 0 76.19-34.45ZM88.34-34.45L92.89-34.45 92.89 0 88.34 0 88.34-34.45ZM103.64-34.45L108.49-34.45 97.99-18.7 109.24 0 104.09 0 93.09-18.4 103.64-34.45ZM147.79-34.45L150.09 0 145.79 0 144.89-15.65Q144.24-25.35 144.34-29.8L144.34-29.8 138.49-3.9 134.24-3.9 128.09-29.85 128.14-27.55Q128.14-23.65 127.74-15.35L127.74-15.35 126.89 0 122.59 0 124.94-34.45 130.84-34.45 136.44-9.2 141.74-34.45 147.79-34.45ZM171.68-5.6Q171.68-4.2 172.08-3.53 172.48-2.85 173.38-2.45L173.38-2.45 172.43 0.6Q170.58 0.3 169.51-0.58 168.43-1.45 167.98-3.2L167.98-3.2Q165.83 0.6 161.68 0.6L161.68 0.6Q158.43 0.6 156.51-1.58 154.58-3.75 154.58-7.35L154.58-7.35Q154.58-11.55 157.18-13.78 159.78-16 164.73-16L164.73-16 167.33-16 167.33-18.4Q167.33-21 166.31-22.2 165.28-23.4 163.13-23.4L163.13-23.4Q160.58-23.4 157.18-22.05L157.18-22.05 156.08-25.15Q160.13-26.9 163.68-26.9L163.68-26.9Q167.73-26.9 169.71-24.73 171.68-22.55 171.68-18.6L171.68-18.6 171.68-5.6ZM162.58-2.7Q165.68-2.7 167.33-6.9L167.33-6.9 167.33-13.05 165.23-13.05Q162.08-13.05 160.61-11.7 159.13-10.35 159.13-7.55L159.13-7.55Q159.13-5.15 160.03-3.93 160.93-2.7 162.58-2.7L162.58-2.7ZM189.78-26.9Q192.63-26.9 194.33-24.85 196.03-22.8 196.03-19.35L196.03-19.35 196.03 0 191.63 0 191.63-18.75Q191.63-21.3 190.91-22.38 190.18-23.45 188.73-23.45L188.73-23.45Q185.88-23.45 183.43-18.55L183.43-18.55 183.43 0 179.03 0 179.03-26.35 182.83-26.35 183.18-22.4Q184.48-24.6 186.03-25.75 187.58-26.9 189.78-26.9L189.78-26.9ZM218.33-5.6Q218.33-4.2 218.73-3.53 219.13-2.85 220.03-2.45L220.03-2.45 219.08 0.6Q217.23 0.3 216.15-0.58 215.08-1.45 214.63-3.2L214.63-3.2Q212.48 0.6 208.33 0.6L208.33 0.6Q205.08 0.6 203.15-1.58 201.23-3.75 201.23-7.35L201.23-7.35Q201.23-11.55 203.83-13.78 206.43-16 211.38-16L211.38-16 213.98-16 213.98-18.4Q213.98-21 212.95-22.2 211.93-23.4 209.78-23.4L209.78-23.4Q207.23-23.4 203.83-22.05L203.83-22.05 202.73-25.15Q206.78-26.9 210.33-26.9L210.33-26.9Q214.38-26.9 216.35-24.73 218.33-22.55 218.33-18.6L218.33-18.6 218.33-5.6ZM209.23-2.7Q212.33-2.7 213.98-6.9L213.98-6.9 213.98-13.05 211.88-13.05Q208.73-13.05 207.25-11.7 205.78-10.35 205.78-7.55L205.78-7.55Q205.78-5.15 206.68-3.93 207.58-2.7 209.23-2.7L209.23-2.7ZM242.33-29.15L243.63-25.2Q242.48-24.7 241.05-24.55 239.63-24.4 237.43-24.4L237.43-24.4Q241.28-22.3 241.28-17.7L241.28-17.7Q241.28-13.65 239.03-11.23 236.78-8.8 232.83-8.8L232.83-8.8Q231.38-8.8 230.18-9.3L230.18-9.3Q229.68-8.9 229.4-8.22 229.13-7.55 229.13-6.8L229.13-6.8Q229.13-5.7 229.73-5.08 230.33-4.45 231.88-4.45L231.88-4.45 234.78-4.45Q237.23-4.45 239.08-3.5 240.93-2.55 241.9-0.93 242.88 0.7 242.88 2.65L242.88 2.65Q242.88 6.25 240.2 8.43 237.53 10.6 232.48 10.6L232.48 10.6Q227.28 10.6 225.1 8.58 222.93 6.55 222.93 2.65L222.93 2.65 226.83 2.65Q226.83 5.1 228.03 6.13 229.23 7.15 232.53 7.15L232.53 7.15Q235.73 7.15 237.13 6.08 238.53 5 238.53 2.95L238.53 2.95Q238.53-0.95 233.93-0.95L233.93-0.95 232.08-0.95Q228.48-0.95 226.83-2.27 225.18-3.6 225.18-5.85L225.18-5.85Q225.18-8.25 227.78-10.35L227.78-10.35Q223.93-12.7 223.93-17.75L223.93-17.75Q223.93-21.9 226.38-24.4 228.83-26.9 232.73-26.9L232.73-26.9Q236.23-26.9 238.23-27.45 240.23-28 242.33-29.15L242.33-29.15ZM232.68-23.75Q230.48-23.75 229.38-22.3 228.28-20.85 228.28-17.75L228.28-17.75Q228.28-15.05 229.43-13.4 230.58-11.75 232.63-11.75L232.63-11.75Q234.83-11.75 235.88-13.15 236.93-14.55 236.93-17.8L236.93-17.8Q236.93-23.75 232.68-23.75L232.68-23.75ZM264.42-13.95Q264.42-12.85 264.32-11.65L264.32-11.65 250.52-11.65Q250.72-6.9 252.1-4.95 253.47-3 256.02-3L256.02-3Q257.67-3 258.97-3.53 260.27-4.05 261.67-5.2L261.67-5.2 263.62-2.55Q260.32 0.6 255.87 0.6L255.87 0.6Q251.17 0.6 248.57-2.88 245.97-6.35 245.97-12.9L245.97-12.9Q245.97-19.45 248.45-23.18 250.92-26.9 255.42-26.9L255.42-26.9Q259.77-26.9 262.1-23.63 264.42-20.35 264.42-13.95L264.42-13.95ZM260.17-14.9L260.17-15.25Q260.17-19.55 259.02-21.5 257.87-23.45 255.42-23.45L255.42-23.45Q253.22-23.45 251.97-21.48 250.72-19.5 250.52-14.9L250.52-14.9 260.17-14.9ZM292.27-26.9Q294.92-26.9 296.52-24.83 298.12-22.75 298.12-19.35L298.12-19.35 298.12 0 293.82 0 293.82-18.8Q293.82-21.3 293.15-22.4 292.47-23.5 291.17-23.5L291.17-23.5Q288.52-23.5 286.27-18.8L286.27-18.8 286.27 0 281.97 0 281.97-18.8Q281.97-23.5 279.32-23.5L279.32-23.5Q277.92-23.5 276.65-22.25 275.37-21 274.37-18.8L274.37-18.8 274.37 0 270.07 0 270.07-26.35 273.87-26.35 274.17-22.55Q276.67-26.9 280.42-26.9L280.42-26.9Q282.42-26.9 283.8-25.68 285.17-24.45 285.77-22.2L285.77-22.2Q288.47-26.9 292.27-26.9L292.27-26.9ZM322.27-13.95Q322.27-12.85 322.17-11.65L322.17-11.65 308.37-11.65Q308.57-6.9 309.94-4.95 311.32-3 313.87-3L313.87-3Q315.52-3 316.82-3.53 318.12-4.05 319.52-5.2L319.52-5.2 321.47-2.55Q318.17 0.6 313.72 0.6L313.72 0.6Q309.02 0.6 306.42-2.88 303.82-6.35 303.82-12.9L303.82-12.9Q303.82-19.45 306.29-23.18 308.77-26.9 313.27-26.9L313.27-26.9Q317.62-26.9 319.94-23.63 322.27-20.35 322.27-13.95L322.27-13.95ZM318.02-14.9L318.02-15.25Q318.02-19.55 316.87-21.5 315.72-23.45 313.27-23.45L313.27-23.45Q311.07-23.45 309.82-21.48 308.57-19.5 308.37-14.9L308.37-14.9 318.02-14.9ZM338.67-26.9Q341.52-26.9 343.22-24.85 344.92-22.8 344.92-19.35L344.92-19.35 344.92 0 340.52 0 340.52-18.75Q340.52-21.3 339.79-22.38 339.07-23.45 337.62-23.45L337.62-23.45Q334.77-23.45 332.32-18.55L332.32-18.55 332.32 0 327.92 0 327.92-26.35 331.72-26.35 332.07-22.4Q333.37-24.6 334.92-25.75 336.47-26.9 338.67-26.9L338.67-26.9ZM361.96-3.95L363.66-1.2Q361.41 0.6 358.61 0.6L358.61 0.6Q355.66 0.6 354.04-1.15 352.41-2.9 352.41-5.85L352.41-5.85 352.41-22.9 348.86-22.9 348.86-26.35 352.41-26.35 352.41-32.3 356.81-32.85 356.81-26.35 361.91-26.35 361.46-22.9 356.81-22.9 356.81-5.8Q356.81-3.05 359.16-3.05L359.16-3.05Q359.96-3.05 360.56-3.25 361.16-3.45 361.96-3.95L361.96-3.95Z" opacity="1" transform="matrix(1,0,0,1,0,0)" fill="#000000" class="wordmark-text-0" data-fill-palette-color="primary" id="text-0"></path></svg></g></svg></g></svg></g></svg></g><g><svg viewBox="0 0 128.29478759075909 128.29478759075906" height="128.29478759075906" width="128.29478759075909"><g><svg xmlns="http://www.w3.org/2000/svg" xmlns:xlink="http://www.w3.org/1999/xlink" version="1.1" x="0" y="0" viewBox="4.2 4.099999999999998 91.70000000000002 91.7" enable-background="new 0 0 100 100" xml:space="preserve" height="128.29478759075906" width="128.29478759075909" class="icon-icon-0" data-fill-palette-color="accent" id="icon-0"><path d="M42.6 91.8l0.1-5.7c-5.1-1-9.8-3.1-13.8-6l-4.1 4c-1.5 1.5-4 1.5-5.5-0.1l-4.2-4.3c-1.5-1.5-1.5-4 0.1-5.5l4.1-4c-2.7-4.2-4.7-8.9-5.5-14L8 56.3c-2.1 0-3.8-1.8-3.8-3.9l0.1-6c0-2.1 1.8-3.8 3.9-3.8l5.4 0.1c3.8 2.4 8.3 3.5 12.9 3.2 1.2-0.1 2.3 0.3 3 1.1l0.7 0.7c-0.1 0.7-0.1 1.4-0.1 2.1-0.1 11 8.7 20.1 19.7 20.2 0.9 0 1.8 0 2.6-0.1l0.2 0.2c0.8 0.8 1.2 2 1.1 3.3-0.5 4.7 0.5 9.2 2.8 13.2L56.3 92c0 2.1-1.8 3.8-3.9 3.8l-6-0.1C44.3 95.7 42.5 94 42.6 91.8zM84.9 20.2l-4.2-4.3c-1.5-1.5-3.9-1.6-5.5-0.1L71 19.9c-4-2.8-8.7-4.9-13.7-5.9l0.1-5.9c0-2.1-1.7-3.9-3.8-3.9l-6-0.1c-2.1 0-3.9 1.7-3.9 3.8l-0.1 5.6c2.3 3.9 3.3 8.5 2.8 13.2-0.1 1.3 0.3 2.4 1.1 3.3l0.2 0.2c0.9-0.1 1.7-0.1 2.6-0.1 11 0.1 19.8 9.2 19.7 20.2 0 0.7-0.1 1.4-0.1 2.1l0.7 0.7c0.8 0.8 1.9 1.2 3 1.1 4.6-0.3 9.1 0.8 12.9 3.2l5.4 0.1c2.1 0 3.9-1.7 3.9-3.8l0.1-6c0-2.1-1.7-3.9-3.8-3.9l-5.8-0.1c-0.9-5.1-2.8-9.8-5.6-13.9l4.2-4.1C86.4 24.2 86.4 21.7 84.9 20.2zM76.2 73.2c2-2 5.2-2 7.1 0l4.3 4.3c1.3 1.3 3.6 0.4 3.6-1.5 0.1-4.3-1.5-8.6-4.7-11.8-3.4-3.4-8-5-12.5-4.7-2.7 0.2-5.3-0.7-7.1-2.6L54.4 44.4l0 0L43.7 33.8c-2-2-2.9-4.8-2.6-7.6 0.5-4.7-1-9.6-4.6-13.2C32.9 9.3 28 7.8 23.3 8.3c-1.8 0.2-2.5 2.4-1.2 3.6l4.8 4.8c2 2 1.9 5.1 0 7.1l-3 3c-2 2-5.2 2-7.1 0l-4.3-4.3c-1.3-1.3-3.6-0.4-3.6 1.5-0.1 4.3 1.5 8.6 4.7 11.8 3.4 3.4 8 5 12.5 4.7 2.7-0.2 5.3 0.7 7.1 2.6l12.4 12.4 0 0 10.6 10.6c2 2 2.9 4.8 2.6 7.6-0.5 4.7 1 9.6 4.6 13.2 3.6 3.6 8.5 5.1 13.2 4.6 1.8-0.2 2.5-2.4 1.2-3.6l-4.8-4.8c-2-2-1.9-5.1 0-7.1L76.2 73.2z" fill="#000000" data-fill-palette-color="accent"></path></svg></g></svg></g></svg></g><defs></defs></svg><rect width="395.52" height="94.77904862153736" fill="none" stroke="none" visibility="hidden"></rect></g></svg></g>
    </symbol>
    <symbol id="colored-full" width="500" height="120" viewBox="0 0 2000 479">
        <g transform="matrix(1,0,0,1,-1.2121212121212466,-0.5570300541242545)"><svg viewBox="0 0 396 95" data-background-color="#ffffff" preserveAspectRatio="xMidYMid meet" height="479" width="2000" xmlns="http://www.w3.org/2000/svg" xmlns:xlink="http://www.w3.org/1999/xlink"><g id="tight-bounds" transform="matrix(1,0,0,1,0.2400000000000091,0.1104756892313219)"><svg viewBox="0 0 395.52 94.77904862153736" height="94.77904862153736" width="395.52"><g><svg viewBox="0 0 535.3836647012541 128.29478759075906" height="94.77904862153736" width="395.52"><g transform="matrix(1,0,0,1,139.86366470125412,39.6449515511551)"><svg viewBox="0 0 395.52 49.004884488448845" height="49.004884488448845" width="395.52"><g id="textblocktransform"><svg viewBox="0 0 395.52 49.004884488448845" height="49.004884488448845" width="395.52" id="textblock"><g><svg viewBox="0 0 395.52 49.004884488448845" height="49.004884488448845" width="395.52"><g transform="matrix(1,0,0,1,0,0)"><svg width="395.52" viewBox="0.1 -34.45 363.56 45.050000000000004" height="49.004884488448845" data-palette-color="#2e30ff"><path d="M18.2-34.45L22.85-34.45 13.75-13.25 13.75 0 9.2 0 9.2-13.2 0.1-34.45 4.95-34.45 11.6-17.25 18.2-34.45ZM46.9 0L42.25 0 40.2-8.75 29.9-8.75 27.85 0 23.35 0 32.3-34.45 37.95-34.45 46.9 0ZM35.05-30.65L30.75-12.4 39.35-12.4 35.05-30.65ZM71.5 0L66.5 0 59.8-14.75Q59.45-14.7 58.75-14.7L58.75-14.7 55.65-14.7 55.65 0 51.09 0 51.09-34.45 58-34.45Q64.05-34.45 67-31.95 69.95-29.45 69.95-24.75L69.95-24.75Q69.95-21.45 68.4-19.07 66.84-16.7 63.95-15.6L63.95-15.6 71.5 0ZM58.34-18.2Q61.95-18.2 63.55-19.78 65.15-21.35 65.15-24.75L65.15-24.75Q65.15-27.9 63.5-29.38 61.84-30.85 57.95-30.85L57.95-30.85 55.65-30.85 55.65-18.2 58.34-18.2ZM76.19-34.45L80.74-34.45 80.74 0 76.19 0 76.19-34.45ZM88.34-34.45L92.89-34.45 92.89 0 88.34 0 88.34-34.45ZM103.64-34.45L108.49-34.45 97.99-18.7 109.24 0 104.09 0 93.09-18.4 103.64-34.45ZM147.79-34.45L150.09 0 145.79 0 144.89-15.65Q144.24-25.35 144.34-29.8L144.34-29.8 138.49-3.9 134.24-3.9 128.09-29.85 128.14-27.55Q128.14-23.65 127.74-15.35L127.74-15.35 126.89 0 122.59 0 124.94-34.45 130.84-34.45 136.44-9.2 141.74-34.45 147.79-34.45ZM171.68-5.6Q171.68-4.2 172.08-3.53 172.48-2.85 173.38-2.45L173.38-2.45 172.43 0.6Q170.58 0.3 169.51-0.58 168.43-1.45 167.98-3.2L167.98-3.2Q165.83 0.6 161.68 0.6L161.68 0.6Q158.43 0.6 156.51-1.58 154.58-3.75 154.58-7.35L154.58-7.35Q154.58-11.55 157.18-13.78 159.78-16 164.73-16L164.73-16 167.33-16 167.33-18.4Q167.33-21 166.31-22.2 165.28-23.4 163.13-23.4L163.13-23.4Q160.58-23.4 157.18-22.05L157.18-22.05 156.08-25.15Q160.13-26.9 163.68-26.9L163.68-26.9Q167.73-26.9 169.71-24.73 171.68-22.55 171.68-18.6L171.68-18.6 171.68-5.6ZM162.58-2.7Q165.68-2.7 167.33-6.9L167.33-6.9 167.33-13.05 165.23-13.05Q162.08-13.05 160.61-11.7 159.13-10.35 159.13-7.55L159.13-7.55Q159.13-5.15 160.03-3.93 160.93-2.7 162.58-2.7L162.58-2.7ZM189.78-26.9Q192.63-26.9 194.33-24.85 196.03-22.8 196.03-19.35L196.03-19.35 196.03 0 191.63 0 191.63-18.75Q191.63-21.3 190.91-22.38 190.18-23.45 188.73-23.45L188.73-23.45Q185.88-23.45 183.43-18.55L183.43-18.55 183.43 0 179.03 0 179.03-26.35 182.83-26.35 183.18-22.4Q184.48-24.6 186.03-25.75 187.58-26.9 189.78-26.9L189.78-26.9ZM218.33-5.6Q218.33-4.2 218.73-3.53 219.13-2.85 220.03-2.45L220.03-2.45 219.08 0.6Q217.23 0.3 216.15-0.58 215.08-1.45 214.63-3.2L214.63-3.2Q212.48 0.6 208.33 0.6L208.33 0.6Q205.08 0.6 203.15-1.58 201.23-3.75 201.23-7.35L201.23-7.35Q201.23-11.55 203.83-13.78 206.43-16 211.38-16L211.38-16 213.98-16 213.98-18.4Q213.98-21 212.95-22.2 211.93-23.4 209.78-23.4L209.78-23.4Q207.23-23.4 203.83-22.05L203.83-22.05 202.73-25.15Q206.78-26.9 210.33-26.9L210.33-26.9Q214.38-26.9 216.35-24.73 218.33-22.55 218.33-18.6L218.33-18.6 218.33-5.6ZM209.23-2.7Q212.33-2.7 213.98-6.9L213.98-6.9 213.98-13.05 211.88-13.05Q208.73-13.05 207.25-11.7 205.78-10.35 205.78-7.55L205.78-7.55Q205.78-5.15 206.68-3.93 207.58-2.7 209.23-2.7L209.23-2.7ZM242.33-29.15L243.63-25.2Q242.48-24.7 241.05-24.55 239.63-24.4 237.43-24.4L237.43-24.4Q241.28-22.3 241.28-17.7L241.28-17.7Q241.28-13.65 239.03-11.23 236.78-8.8 232.83-8.8L232.83-8.8Q231.38-8.8 230.18-9.3L230.18-9.3Q229.68-8.9 229.4-8.22 229.13-7.55 229.13-6.8L229.13-6.8Q229.13-5.7 229.73-5.08 230.33-4.45 231.88-4.45L231.88-4.45 234.78-4.45Q237.23-4.45 239.08-3.5 240.93-2.55 241.9-0.93 242.88 0.7 242.88 2.65L242.88 2.65Q242.88 6.25 240.2 8.43 237.53 10.6 232.48 10.6L232.48 10.6Q227.28 10.6 225.1 8.58 222.93 6.55 222.93 2.65L222.93 2.65 226.83 2.65Q226.83 5.1 228.03 6.13 229.23 7.15 232.53 7.15L232.53 7.15Q235.73 7.15 237.13 6.08 238.53 5 238.53 2.95L238.53 2.95Q238.53-0.95 233.93-0.95L233.93-0.95 232.08-0.95Q228.48-0.95 226.83-2.27 225.18-3.6 225.18-5.85L225.18-5.85Q225.18-8.25 227.78-10.35L227.78-10.35Q223.93-12.7 223.93-17.75L223.93-17.75Q223.93-21.9 226.38-24.4 228.83-26.9 232.73-26.9L232.73-26.9Q236.23-26.9 238.23-27.45 240.23-28 242.33-29.15L242.33-29.15ZM232.68-23.75Q230.48-23.75 229.38-22.3 228.28-20.85 228.28-17.75L228.28-17.75Q228.28-15.05 229.43-13.4 230.58-11.75 232.63-11.75L232.63-11.75Q234.83-11.75 235.88-13.15 236.93-14.55 236.93-17.8L236.93-17.8Q236.93-23.75 232.68-23.75L232.68-23.75ZM264.42-13.95Q264.42-12.85 264.32-11.65L264.32-11.65 250.52-11.65Q250.72-6.9 252.1-4.95 253.47-3 256.02-3L256.02-3Q257.67-3 258.97-3.53 260.27-4.05 261.67-5.2L261.67-5.2 263.62-2.55Q260.32 0.6 255.87 0.6L255.87 0.6Q251.17 0.6 248.57-2.88 245.97-6.35 245.97-12.9L245.97-12.9Q245.97-19.45 248.45-23.18 250.92-26.9 255.42-26.9L255.42-26.9Q259.77-26.9 262.1-23.63 264.42-20.35 264.42-13.95L264.42-13.95ZM260.17-14.9L260.17-15.25Q260.17-19.55 259.02-21.5 257.87-23.45 255.42-23.45L255.42-23.45Q253.22-23.45 251.97-21.48 250.72-19.5 250.52-14.9L250.52-14.9 260.17-14.9ZM292.27-26.9Q294.92-26.9 296.52-24.83 298.12-22.75 298.12-19.35L298.12-19.35 298.12 0 293.82 0 293.82-18.8Q293.82-21.3 293.15-22.4 292.47-23.5 291.17-23.5L291.17-23.5Q288.52-23.5 286.27-18.8L286.27-18.8 286.27 0 281.97 0 281.97-18.8Q281.97-23.5 279.32-23.5L279.32-23.5Q277.92-23.5 276.65-22.25 275.37-21 274.37-18.8L274.37-18.8 274.37 0 270.07 0 270.07-26.35 273.87-26.35 274.17-22.55Q276.67-26.9 280.42-26.9L280.42-26.9Q282.42-26.9 283.8-25.68 285.17-24.45 285.77-22.2L285.77-22.2Q288.47-26.9 292.27-26.9L292.27-26.9ZM322.27-13.95Q322.27-12.85 322.17-11.65L322.17-11.65 308.37-11.65Q308.57-6.9 309.94-4.95 311.32-3 313.87-3L313.87-3Q315.52-3 316.82-3.53 318.12-4.05 319.52-5.2L319.52-5.2 321.47-2.55Q318.17 0.6 313.72 0.6L313.72 0.6Q309.02 0.6 306.42-2.88 303.82-6.35 303.82-12.9L303.82-12.9Q303.82-19.45 306.29-23.18 308.77-26.9 313.27-26.9L313.27-26.9Q317.62-26.9 319.94-23.63 322.27-20.35 322.27-13.95L322.27-13.95ZM318.02-14.9L318.02-15.25Q318.02-19.55 316.87-21.5 315.72-23.45 313.27-23.45L313.27-23.45Q311.07-23.45 309.82-21.48 308.57-19.5 308.37-14.9L308.37-14.9 318.02-14.9ZM338.67-26.9Q341.52-26.9 343.22-24.85 344.92-22.8 344.92-19.35L344.92-19.35 344.92 0 340.52 0 340.52-18.75Q340.52-21.3 339.79-22.38 339.07-23.45 337.62-23.45L337.62-23.45Q334.77-23.45 332.32-18.55L332.32-18.55 332.32 0 327.92 0 327.92-26.35 331.72-26.35 332.07-22.4Q333.37-24.6 334.92-25.75 336.47-26.9 338.67-26.9L338.67-26.9ZM361.96-3.95L363.66-1.2Q361.41 0.6 358.61 0.6L358.61 0.6Q355.66 0.6 354.04-1.15 352.41-2.9 352.41-5.85L352.41-5.85 352.41-22.9 348.86-22.9 348.86-26.35 352.41-26.35 352.41-32.3 356.81-32.85 356.81-26.35 361.91-26.35 361.46-22.9 356.81-22.9 356.81-5.8Q356.81-3.05 359.16-3.05L359.16-3.05Q359.96-3.05 360.56-3.25 361.16-3.45 361.96-3.95L361.96-3.95Z" opacity="1" transform="matrix(1,0,0,1,0,0)" fill="#2e30ff" class="wordmark-text-0" data-fill-palette-color="primary" id="text-0"></path></svg></g></svg></g></svg></g></svg></g><g><svg viewBox="0 0 128.29478759075909 128.29478759075906" height="128.29478759075906" width="128.29478759075909"><g><svg xmlns="http://www.w3.org/2000/svg" xmlns:xlink="http://www.w3.org/1999/xlink" version="1.1" x="0" y="0" viewBox="4.2 4.099999999999998 91.70000000000002 91.7" enable-background="new 0 0 100 100" xml:space="preserve" height="128.29478759075906" width="128.29478759075909" class="icon-icon-0" data-fill-palette-color="accent" id="icon-0"><path d="M42.6 91.8l0.1-5.7c-5.1-1-9.8-3.1-13.8-6l-4.1 4c-1.5 1.5-4 1.5-5.5-0.1l-4.2-4.3c-1.5-1.5-1.5-4 0.1-5.5l4.1-4c-2.7-4.2-4.7-8.9-5.5-14L8 56.3c-2.1 0-3.8-1.8-3.8-3.9l0.1-6c0-2.1 1.8-3.8 3.9-3.8l5.4 0.1c3.8 2.4 8.3 3.5 12.9 3.2 1.2-0.1 2.3 0.3 3 1.1l0.7 0.7c-0.1 0.7-0.1 1.4-0.1 2.1-0.1 11 8.7 20.1 19.7 20.2 0.9 0 1.8 0 2.6-0.1l0.2 0.2c0.8 0.8 1.2 2 1.1 3.3-0.5 4.7 0.5 9.2 2.8 13.2L56.3 92c0 2.1-1.8 3.8-3.9 3.8l-6-0.1C44.3 95.7 42.5 94 42.6 91.8zM84.9 20.2l-4.2-4.3c-1.5-1.5-3.9-1.6-5.5-0.1L71 19.9c-4-2.8-8.7-4.9-13.7-5.9l0.1-5.9c0-2.1-1.7-3.9-3.8-3.9l-6-0.1c-2.1 0-3.9 1.7-3.9 3.8l-0.1 5.6c2.3 3.9 3.3 8.5 2.8 13.2-0.1 1.3 0.3 2.4 1.1 3.3l0.2 0.2c0.9-0.1 1.7-0.1 2.6-0.1 11 0.1 19.8 9.2 19.7 20.2 0 0.7-0.1 1.4-0.1 2.1l0.7 0.7c0.8 0.8 1.9 1.2 3 1.1 4.6-0.3 9.1 0.8 12.9 3.2l5.4 0.1c2.1 0 3.9-1.7 3.9-3.8l0.1-6c0-2.1-1.7-3.9-3.8-3.9l-5.8-0.1c-0.9-5.1-2.8-9.8-5.6-13.9l4.2-4.1C86.4 24.2 86.4 21.7 84.9 20.2zM76.2 73.2c2-2 5.2-2 7.1 0l4.3 4.3c1.3 1.3 3.6 0.4 3.6-1.5 0.1-4.3-1.5-8.6-4.7-11.8-3.4-3.4-8-5-12.5-4.7-2.7 0.2-5.3-0.7-7.1-2.6L54.4 44.4l0 0L43.7 33.8c-2-2-2.9-4.8-2.6-7.6 0.5-4.7-1-9.6-4.6-13.2C32.9 9.3 28 7.8 23.3 8.3c-1.8 0.2-2.5 2.4-1.2 3.6l4.8 4.8c2 2 1.9 5.1 0 7.1l-3 3c-2 2-5.2 2-7.1 0l-4.3-4.3c-1.3-1.3-3.6-0.4-3.6 1.5-0.1 4.3 1.5 8.6 4.7 11.8 3.4 3.4 8 5 12.5 4.7 2.7-0.2 5.3 0.7 7.1 2.6l12.4 12.4 0 0 10.6 10.6c2 2 2.9 4.8 2.6 7.6-0.5 4.7 1 9.6 4.6 13.2 3.6 3.6 8.5 5.1 13.2 4.6 1.8-0.2 2.5-2.4 1.2-3.6l-4.8-4.8c-2-2-1.9-5.1 0-7.1L76.2 73.2z" fill="#fe5200" data-fill-palette-color="accent"></path></svg></g></svg></g></svg></g><defs></defs></svg><rect width="395.52" height="94.77904862153736" fill="none" stroke="none" visibility="hidden"></rect></g></svg></g>
    </symbol>

</svg>